<?xml version="1.0" encoding="utf-8"?>
<!-- Generator: Adobe Illustrator 15.0.0, SVG Export Plug-In . SVG Version: 6.00 Build 0)  -->
<!DOCTYPE svg PUBLIC "-//W3C//DTD SVG 1.1//EN" "http://www.w3.org/Graphics/SVG/1.1/DTD/svg11.dtd">
<svg version="1.1" id="Layer_1" xmlns="http://www.w3.org/2000/svg" xmlns:xlink="http://www.w3.org/1999/xlink" x="0px" y="0px"
	 width="512px" height="512px" viewBox="0 0 512 512" enable-background="new 0 0 512 512" xml:space="preserve">
<path display="none" d="M522.406,326.855L522.406,326.855L522.406,326.855"/>
<g>
	<path d="M369.816,332.124c-22.587,0-40.875,18.289-40.875,40.875c0,22.527,18.288,40.875,40.875,40.875
		s40.875-18.287,40.875-40.875C410.691,350.413,392.404,332.124,369.816,332.124z"/>
	<path d="M511.895,16.752C512.945,7.832,505.972,0,496.986,0H304.199c-8.284,0-15,6.716-15,15v214.972
		c0,21.44-10.521,41.52-28.147,53.717C213.961,316.297,131.902,373.107,100,395.193c-6.115,4.234-13.285,6.473-20.733,6.473H39.084
		C17.557,401.667,0,419.161,0,440.783C0,480.052,31.948,512,71.217,512H221.97c14.077,0,28.165-3.326,40.739-9.618
		c25.979-12.994,57-12.994,82.978-0.001c12.576,6.292,26.664,9.619,40.741,9.619h46.305c43.708,0,79.266-35.559,79.266-79.267
		c0-30.591-1.33-84.212-31.719-147.24L511.895,16.752z M478.999,380.084c0,3.875-2.302,7.327-5.873,8.842l-22.891,9.749
		c-2.362,1.03-4.239,2.906-5.209,5.329l-0.12,0.303c-0.909,2.301-0.909,4.905,0.061,7.206l9.446,22.77
		c1.515,3.573,0.666,7.751-2.119,10.476l-10.233,10.234c-2.726,2.725-6.843,3.572-10.415,2.119l-23.012-9.204
		c-2.302-0.909-4.904-0.909-7.267,0.061c-0.121,0.061-0.303,0.12-0.423,0.182c-2.362,0.969-4.239,2.845-5.27,5.208l-9.324,22.708
		c-1.515,3.573-5.027,5.935-8.902,5.935h-14.472c-3.876,0-7.327-2.301-8.842-5.874l-9.629-22.526
		c-1.028-2.421-3.027-4.299-5.449-5.208c-0.183-0.061-0.424-0.182-0.605-0.241c-2.362-0.908-4.965-0.908-7.267,0l-22.467,9.265
		c-3.572,1.453-7.751,0.666-10.476-2.119l-10.234-10.234c-2.725-2.725-3.572-6.843-2.119-10.415l9.083-22.588
		c0.97-2.36,0.909-4.964-0.061-7.326c-0.12-0.304-0.241-0.546-0.363-0.849c-0.97-2.422-2.847-4.358-5.269-5.329l-22.284-9.265
		c-3.573-1.514-5.935-5.026-5.935-8.901v-14.472h-0.062v-0.001c0-3.877,2.3-7.329,5.873-8.843l22.406-9.567
		c2.361-1.03,4.238-2.967,5.208-5.329c0.121-0.303,0.241-0.545,0.304-0.848c0.968-2.361,0.968-4.966,0-7.327l-9.205-22.345
		c-1.453-3.572-0.666-7.752,2.119-10.477l10.233-10.233c2.726-2.727,6.844-3.573,10.415-2.12l22.708,9.145
		c2.302,0.907,4.906,0.907,7.267,0c0.183-0.062,0.426-0.181,0.606-0.242c2.422-0.97,4.36-2.847,5.39-5.269l9.386-22.466
		c1.515-3.573,5.025-5.935,8.901-5.935h14.473c3.875,0,7.327,2.302,8.842,5.874l9.688,22.709c1.029,2.36,2.907,4.177,5.268,5.147
		c0.122,0.06,0.243,0.119,0.364,0.119c2.36,0.969,5.026,1.029,7.388,0l22.648-9.325c3.571-1.452,7.75-0.666,10.475,2.12
		l10.234,10.233c2.725,2.725,3.573,6.844,2.119,10.415l-9.203,23.012c-0.909,2.362-0.909,4.966,0.061,7.267
		c0,0.062,0.06,0.121,0.06,0.182c0.97,2.423,2.847,4.36,5.269,5.39l22.769,9.508c3.573,1.514,5.936,5.025,5.936,8.9V380.084z"/>
</g>
</svg>
